<svg width="22" height="26" viewBox="0 0 22 26" fill="none" xmlns="http://www.w3.org/2000/svg">
<g clip-path="url(#clip0)">
<path d="M19.0476 1.59961H2.28571C1.67951 1.59961 1.09812 1.85247 0.66947 2.30255C0.240816 2.75264 0 3.36309 0 3.99961L0 21.5996C0 22.2361 0.240816 22.8466 0.66947 23.2967C1.09812 23.7468 1.67951 23.9996 2.28571 23.9996H8.82143V16.3841H5.82143V12.7996H8.82143V10.0676C8.82143 6.96011 10.5833 5.24361 13.2819 5.24361C14.5743 5.24361 15.9257 5.48561 15.9257 5.48561V8.53561H14.4367C12.9695 8.53561 12.5119 9.49161 12.5119 10.4721V12.7996H15.7871L15.2633 16.3841H12.5119V23.9996H19.0476C19.6538 23.9996 20.2352 23.7468 20.6639 23.2967C21.0925 22.8466 21.3333 22.2361 21.3333 21.5996V3.99961C21.3333 3.36309 21.0925 2.75264 20.6639 2.30255C20.2352 1.85247 19.6538 1.59961 19.0476 1.59961V1.59961Z" fill="url(#paint0_linear)"/>
</g>
<defs>
<linearGradient id="paint0_linear" x1="10.6667" y1="1.59961" x2="10.6667" y2="23.9996" gradientUnits="userSpaceOnUse">
<stop stop-color="#8A8A8A"/>
<stop offset="1" stop-color="#C4C4C4" stop-opacity="0"/>
</linearGradient>
<clipPath id="clip0">
<rect width="21.3333" height="25.6" fill="white"/>
</clipPath>
</defs>
</svg>
