<svg width="26" height="26" viewBox="0 0 26 26" fill="none" xmlns="http://www.w3.org/2000/svg">
<g clip-path="url(#clip0)">
<path d="M24.6278 6.23657L22.968 22.9034H3.03254L1.69531 6.55914L13.0003 12.8886L24.6278 6.23657Z" fill="url(#paint0_linear)"/>
<path d="M24.0646 3.09692L13.0001 13.4906L1.93555 3.09692H13.0001H24.0646Z" fill="url(#paint1_linear)"/>
<path d="M3.03225 7.8961V22.9032H1.22581C0.549047 22.9032 0 22.3542 0 21.6774V5.68579L1.98047 5.73977L3.03225 7.8961Z" fill="url(#paint2_linear)"/>
<path d="M26 5.68574V21.6774C26 22.3541 25.451 22.9032 24.7735 22.9032H22.9678V7.89605L23.9678 5.53345L26 5.68574Z" fill="url(#paint3_linear)"/>
<path d="M26 4.32273V5.68596L22.9677 7.89626L13 15.1614L3.03225 7.89626L0 5.68596V4.32273C0 3.64597 0.549047 3.09692 1.22581 3.09692H1.93548L13 11.1614L24.0645 3.09692H24.7735C25.451 3.09692 26 3.64592 26 4.32273Z" fill="url(#paint4_linear)"/>
</g>
<defs>
<linearGradient id="paint0_linear" x1="13.1616" y1="6.23657" x2="13.1616" y2="22.9034" gradientUnits="userSpaceOnUse">
<stop stop-color="#EAEAEA"/>
<stop offset="1" stop-color="#8A8A8A"/>
</linearGradient>
<linearGradient id="paint1_linear" x1="13.0001" y1="3.09692" x2="13.0001" y2="13.4906" gradientUnits="userSpaceOnUse">
<stop stop-color="#EAEAEA"/>
<stop offset="1" stop-color="#8A8A8A"/>
</linearGradient>
<linearGradient id="paint2_linear" x1="1.51613" y1="5.68579" x2="1.51613" y2="22.9032" gradientUnits="userSpaceOnUse">
<stop stop-color="#EAEAEA"/>
<stop offset="1" stop-color="#8A8A8A"/>
</linearGradient>
<linearGradient id="paint3_linear" x1="24.4839" y1="5.53345" x2="24.4839" y2="22.9032" gradientUnits="userSpaceOnUse">
<stop stop-color="#EAEAEA"/>
<stop offset="1" stop-color="#8A8A8A"/>
</linearGradient>
<linearGradient id="paint4_linear" x1="13" y1="3.09692" x2="13" y2="13.7027" gradientUnits="userSpaceOnUse">
<stop stop-color="#EAEAEA"/>
<stop offset="1" stop-color="#8A8A8A"/>
</linearGradient>
<clipPath id="clip0">
<rect width="26" height="26" fill="white"/>
</clipPath>
</defs>
</svg>
