<svg width="24" height="24" viewBox="0 0 24 24" fill="none" xmlns="http://www.w3.org/2000/svg">
<path d="M17.5034 0H6.49657C2.9143 0 0 2.9143 0 6.49657V17.5036C0 21.0857 2.9143 24 6.49657 24H17.5036C21.0857 24 24 21.0857 24 17.5036V6.49657C24 2.9143 21.0857 0 17.5034 0V0ZM12 18.5623C8.38145 18.5623 5.43767 15.6185 5.43767 12C5.43767 8.38145 8.38145 5.43767 12 5.43767C15.6185 5.43767 18.5623 8.38145 18.5623 12C18.5623 15.6185 15.6185 18.5623 12 18.5623V18.5623ZM18.7192 6.98528C17.6499 6.98528 16.7801 6.11553 16.7801 5.04619C16.7801 3.97686 17.6499 3.10693 18.7192 3.10693C19.7885 3.10693 20.6585 3.97686 20.6585 5.04619C20.6585 6.11553 19.7885 6.98528 18.7192 6.98528Z" fill="url(#paint0_linear)"/>
<path d="M12.0001 6.84473C9.15753 6.84473 6.84473 9.15734 6.84473 12.0001C6.84473 14.8426 9.15753 17.1554 12.0001 17.1554C14.8428 17.1554 17.1554 14.8426 17.1554 12.0001C17.1554 9.15734 14.8428 6.84473 12.0001 6.84473V6.84473Z" fill="url(#paint1_linear)"/>
<path d="M18.7196 4.51416C18.4263 4.51416 18.1875 4.75293 18.1875 5.04626C18.1875 5.3396 18.4263 5.57837 18.7196 5.57837C19.0131 5.57837 19.2519 5.33978 19.2519 5.04626C19.2519 4.75275 19.0131 4.51416 18.7196 4.51416Z" fill="url(#paint2_linear)"/>
<defs>
<linearGradient id="paint0_linear" x1="12" y1="0" x2="12" y2="24" gradientUnits="userSpaceOnUse">
<stop stop-color="#EAEAEA"/>
<stop offset="1" stop-color="#8A8A8A"/>
</linearGradient>
<linearGradient id="paint1_linear" x1="12.0002" y1="0.799998" x2="12.0002" y2="23.4" gradientUnits="userSpaceOnUse">
<stop stop-color="#EAEAEA"/>
<stop offset="1" stop-color="#8A8A8A"/>
</linearGradient>
<linearGradient id="paint2_linear" x1="18.7197" y1="4.51416" x2="18.7197" y2="5.57837" gradientUnits="userSpaceOnUse">
<stop offset="0.822917" stop-color="#D6D1D1"/>
</linearGradient>
</defs>
</svg>
